<!DOCTYPE svg PUBLIC "-//W3C//DTD SVG 1.1//EN" "http://www.w3.org/Graphics/SVG/1.1/DTD/svg11.dtd">
<!-- Uploaded to: SVG Repo, www.svgrepo.com, Transformed by: SVG Repo Mixer Tools -->
<svg fill="#e70810" height="800px" width="800px" version="1.1" id="Layer_1" xmlns="http://www.w3.org/2000/svg" xmlns:xlink="http://www.w3.org/1999/xlink" viewBox="0 0 512 512" xml:space="preserve">
<g id="SVGRepo_bgCarrier" stroke-width="0"/>
<g id="SVGRepo_tracerCarrier" stroke-linecap="round" stroke-linejoin="round"/>
<g id="SVGRepo_iconCarrier"> <g transform="translate(1 1)"> <g> <g> <path d="M198.68,263.533c-4.267,5.12-8.533,10.24-11.947,17.067V178.2c0-16.213-11.947-34.133-29.867-34.133 c-6.827,0-12.8,2.56-17.92,6.827c-5.12-8.533-14.507-15.36-24.747-15.36c-12.8,0-23.04,10.24-27.307,22.187 c-4.267-3.413-9.387-5.12-14.507-5.12c-16.213,0-28.16,14.507-30.72,29.013c-3.413-1.707-7.68-3.413-12.8-3.413 C10.947,178.2-1,196.12-1,212.333V380.44c0,40.107,0,42.667,16.213,63.147l0.853,1.707v31.573c0,9.387,0,34.133,29.867,34.133 h105.813c17.92,0,26.453-11.093,26.453-34.987v-28.16c17.067-8.533,42.667-30.72,42.667-72.533c0-20.48,7.68-59.733,20.48-77.653 c15.36-20.48,3.413-32.427,0-35.84C229.4,252.44,208.92,253.293,198.68,263.533z M227.693,289.133 c-15.36,22.187-23.893,64.853-23.893,87.893c0,39.701-26.954,53.754-34.696,57.173H152.6c-5.12,0-8.533,3.413-8.533,8.533 s3.413,8.533,8.533,8.533h8.533v25.6c0,14.507-3.413,17.067-9.387,17.067H45.933c-11.947,0-12.8-4.267-12.8-17.067v-25.6h8.533 c5.12,0,8.533-3.413,8.533-8.533s-3.413-8.533-8.533-8.533h-12.8c-12.8-17.067-12.8-17.067-12.8-53.76V212.333 c0-6.827,5.12-17.067,12.8-17.067c6.827,0,12.8,9.387,12.8,17.067v110.933c0,5.12,3.413,8.533,8.533,8.533 s8.533-3.413,8.533-8.533V212.333v-25.6c0-6.827,5.973-17.067,13.653-17.067c5.973,0,11.947,9.387,11.947,17.067v128 c0,5.12,3.413,8.533,8.533,8.533c5.12,0,8.533-3.413,8.533-8.533v-128v-17.067c0-6.827,5.12-17.067,12.8-17.067 c6.827,0,12.8,9.387,12.8,17.067v8.533v136.533c0,5.12,3.413,8.533,8.533,8.533s8.533-3.413,8.533-8.533V178.2 c0-7.68,5.12-17.067,12.8-17.067c6.827,0,12.8,9.387,12.8,17.067v157.013v0.853c0,0.853,0,1.707,0,2.56v0.853 c0.853,4.267,5.12,7.68,9.387,6.827s7.68-4.267,7.68-8.533c0-14.507,10.24-47.787,24.747-60.587 c3.413-4.267,14.507-5.12,18.773-0.853C233.667,278.893,231.107,284.867,227.693,289.133z"/> <path d="M481.133,179.053c-4.267,0-8.533,0.853-12.8,3.413c-2.56-14.507-13.653-29.013-29.867-29.013 c-5.12,0-10.24,2.56-14.507,5.12c-4.267-11.947-14.507-22.187-28.16-22.187c-11.093,0-19.627,6.827-24.747,15.36 c-5.12-4.267-11.093-6.827-17.92-6.827c-17.92,0-29.867,17.92-29.867,34.133v102.4c-3.413-6.827-7.68-12.8-11.947-17.067 c-11.093-10.24-31.573-11.093-42.667-1.707c-3.413,2.56-15.36,15.36,0,35.84c12.8,17.92,20.48,57.173,20.48,77.653 c0,41.813,25.6,64,42.667,72.533v28.16c0,8.533,0,34.133,26.453,34.133h105.813c29.867,0,29.867-23.893,29.867-34.133v-31.573 h0.853C511,423.96,511,421.4,511,381.293V213.187C511,196.973,499.053,179.053,481.133,179.053z M493.933,380.44 c0,36.693,0,36.693-12.8,53.76h-12.8c-5.12,0-8.533,3.413-8.533,8.533s3.413,8.533,8.533,8.533h8.533v25.6 c0,11.947-1.707,16.213-12.8,16.213H358.253c-6.827,0-9.387-2.56-9.387-17.067v-24.747h8.533c5.12,0,8.533-3.413,8.533-8.533 s-3.413-8.533-8.533-8.533h-14.507c-1.707,0-36.693-12.8-36.693-58.027c0-23.04-8.533-65.707-23.893-87.893 c-3.413-4.267-5.973-10.24-2.56-12.8c2.56-1.707,5.973-2.56,9.387-2.56s7.68,0.853,10.24,1.707 c13.653,13.653,23.893,46.933,23.893,61.44c0,4.267,3.413,7.68,7.68,8.533s8.533-1.707,9.387-5.973v-0.853 c0-0.853,0-1.707,0-2.56v-0.853V178.2c0-7.68,5.973-17.067,12.8-17.067c7.68,0,12.8,9.387,12.8,17.067v136.533 c0,5.12,3.413,8.533,8.533,8.533s8.533-3.413,8.533-8.533V178.2v-8.533c0-7.68,5.973-17.067,12.8-17.067 c7.68,0,12.8,10.24,12.8,17.067v17.067v128c0,5.12,3.413,8.533,8.533,8.533s8.533-3.413,8.533-8.533v-128 c0-7.68,5.12-17.067,11.947-17.067c7.68,0,13.653,10.24,13.653,17.067v25.6v110.933c0,5.12,3.413,8.533,8.533,8.533 c5.12,0,8.533-3.413,8.533-8.533V212.333c0-7.68,5.973-17.067,12.8-17.067c7.68,0,12.8,10.24,12.8,17.067V380.44z"/> <path d="M263.533,92.867V7.533C263.533,2.413,260.12-1,255-1s-8.533,3.413-8.533,8.533v85.333c0,5.12,3.413,8.533,8.533,8.533 S263.533,97.987,263.533,92.867z"/> <path d="M323.267,101.4c2.56,0,4.267-0.853,5.973-2.56l68.267-68.267c3.413-3.413,3.413-8.533,0-11.947 c-3.413-3.413-8.533-3.413-11.947,0l-68.267,68.267c-3.413,3.413-3.413,8.533,0,11.947C319,100.547,320.707,101.4,323.267,101.4z "/> <path d="M189.293,98.84c1.707,1.707,3.413,2.56,5.973,2.56s4.267-0.853,5.973-2.56c3.413-3.413,3.413-8.533,0-11.947 l-68.267-68.267c-3.413-3.413-8.533-3.413-11.947,0s-3.413,8.533,0,11.947L189.293,98.84z"/> </g> </g> </g> </g>
</svg>